<svg width="186" height="52" viewBox="0 0 186 52" fill="none" xmlns="http://www.w3.org/2000/svg">
<path d="M77.5243 39.504C76.3483 39.504 75.1843 39.336 74.0323 39C72.9043 38.64 71.8843 38.064 70.9723 37.272C70.4443 36.816 69.9523 36.24 69.4963 35.544C69.0643 34.824 68.8483 34.128 68.8483 33.456C68.8483 33.12 68.9443 32.832 69.1363 32.592C69.3283 32.328 69.6163 32.196 70.0003 32.196C70.4563 32.196 70.7803 32.436 70.9723 32.916C71.1883 33.396 71.4643 33.912 71.8003 34.464C72.4243 35.352 73.1683 36.036 74.0323 36.516C74.8963 36.972 76.0243 37.2 77.4163 37.2C78.7363 37.2 79.8883 36.948 80.8723 36.444C81.8803 35.916 82.6723 35.196 83.2483 34.284C83.8243 33.348 84.1123 32.268 84.1123 31.044C84.1123 30.06 83.8243 29.16 83.2483 28.344C82.6723 27.528 81.9403 26.748 81.0523 26.004C80.1643 25.236 79.2043 24.48 78.1723 23.736C77.1643 22.992 76.2163 22.212 75.3283 21.396C74.4403 20.556 73.7083 19.644 73.1323 18.66C72.5563 17.676 72.2683 16.572 72.2683 15.348C72.2683 13.644 72.6763 12.228 73.4923 11.1C74.3323 9.948 75.4483 9.084 76.8403 8.508C78.2563 7.908 79.8043 7.608 81.4843 7.608C82.7083 7.608 83.8603 7.824 84.9403 8.256C86.0443 8.664 86.9443 9.168 87.6403 9.768C88.3363 10.368 88.6843 10.968 88.6843 11.568C88.6843 12.312 88.3483 12.684 87.6763 12.684C87.3403 12.684 86.9923 12.54 86.6323 12.252C86.2963 11.964 85.8883 11.64 85.4083 11.28C84.9523 10.92 84.3763 10.596 83.6803 10.308C83.0083 10.02 82.1563 9.876 81.1243 9.876C79.3723 9.876 77.9443 10.356 76.8403 11.316C75.7363 12.276 75.1843 13.596 75.1843 15.276C75.1843 16.212 75.4603 17.076 76.0123 17.868C76.5883 18.636 77.3203 19.392 78.2083 20.136C79.1203 20.856 80.0803 21.588 81.0883 22.332C82.0963 23.052 83.0443 23.832 83.9323 24.672C84.8443 25.512 85.5763 26.448 86.1283 27.48C86.7043 28.488 86.9923 29.628 86.9923 30.9C86.9923 32.7 86.5843 34.248 85.7683 35.544C84.9763 36.816 83.8603 37.8 82.4203 38.496C81.0043 39.168 79.3723 39.504 77.5243 39.504ZM91.6616 51.6C91.3496 51.6 91.1096 51.552 90.9416 51.456C90.7736 51.36 90.6896 51.168 90.6896 50.88L94.2896 21.648C94.3616 21.24 94.5416 20.988 94.8296 20.892C95.1176 20.796 95.4776 20.748 95.9096 20.748C96.1976 20.748 96.4376 20.808 96.6296 20.928C96.8456 21.024 96.9536 21.204 96.9536 21.468L96.7016 24.024C97.4456 22.992 98.2976 22.188 99.2576 21.612C100.218 21.036 101.31 20.748 102.534 20.748C103.494 20.748 104.394 20.976 105.234 21.432C106.098 21.888 106.794 22.596 107.322 23.556C107.874 24.516 108.15 25.752 108.15 27.264C108.15 28.248 108.018 29.304 107.754 30.432C107.514 31.536 107.094 32.628 106.494 33.708C105.894 34.764 105.078 35.736 104.046 36.624C103.038 37.488 101.778 38.184 100.266 38.712C98.7776 39.24 96.9896 39.504 94.9016 39.504L93.3896 50.7C93.3416 51.084 93.1376 51.324 92.7776 51.42C92.4416 51.54 92.0696 51.6 91.6616 51.6ZM96.0536 37.272C97.8296 37.272 99.4016 36.828 100.77 35.94C102.162 35.052 103.254 33.876 104.046 32.412C104.838 30.948 105.234 29.352 105.234 27.624C105.234 26.424 104.946 25.38 104.37 24.492C103.794 23.58 102.906 23.124 101.706 23.124C100.674 23.124 99.7976 23.4 99.0776 23.952C98.3816 24.504 97.8056 25.236 97.3496 26.148C96.8936 27.036 96.5336 28.02 96.2696 29.1C96.0296 30.156 95.8496 31.188 95.7296 32.196L95.1536 37.2C95.2256 37.224 95.3816 37.248 95.6216 37.272C95.8616 37.272 96.0056 37.272 96.0536 37.272ZM119.226 39.504C116.706 39.504 114.798 38.808 113.502 37.416C112.206 36.024 111.558 34.068 111.558 31.548C111.558 29.7 111.87 28.104 112.494 26.76C113.142 25.392 113.97 24.264 114.978 23.376C115.986 22.488 117.054 21.828 118.182 21.396C119.31 20.964 120.378 20.748 121.386 20.748C122.658 20.748 123.726 21.06 124.59 21.684C125.454 22.308 125.886 23.22 125.886 24.42C125.886 25.836 125.37 27.084 124.338 28.164C123.306 29.244 121.926 30.084 120.198 30.684C118.494 31.284 116.586 31.584 114.474 31.584C114.474 33.336 114.882 34.728 115.698 35.76C116.538 36.768 117.762 37.272 119.37 37.272C120.21 37.272 120.942 37.116 121.566 36.804C122.214 36.468 122.73 36.144 123.114 35.832C123.522 35.52 123.75 35.364 123.798 35.364C124.086 35.364 124.314 35.556 124.482 35.94C124.674 36.3 124.77 36.648 124.77 36.984C124.77 37.224 124.482 37.548 123.906 37.956C123.33 38.364 122.61 38.724 121.746 39.036C120.906 39.348 120.066 39.504 119.226 39.504ZM114.618 29.46C115.674 29.46 116.718 29.352 117.75 29.136C118.782 28.896 119.706 28.572 120.522 28.164C121.362 27.756 122.022 27.264 122.502 26.688C123.006 26.112 123.258 25.476 123.258 24.78C123.258 24.156 123.066 23.688 122.682 23.376C122.298 23.064 121.818 22.908 121.242 22.908C120.498 22.908 119.658 23.16 118.722 23.664C117.786 24.144 116.922 24.864 116.13 25.824C115.362 26.784 114.858 27.996 114.618 29.46ZM135.82 39.504C133.3 39.504 131.392 38.796 130.096 37.38C128.8 35.964 128.152 33.996 128.152 31.476C128.152 30.132 128.368 28.824 128.8 27.552C129.232 26.28 129.856 25.128 130.672 24.096C131.488 23.064 132.484 22.248 133.66 21.648C134.86 21.048 136.216 20.748 137.728 20.748C138.688 20.748 139.528 20.88 140.248 21.144C140.968 21.384 141.52 21.672 141.904 22.008C142.312 22.344 142.516 22.644 142.516 22.908C142.516 23.244 142.372 23.58 142.084 23.916C141.82 24.252 141.52 24.42 141.184 24.42C141.04 24.42 140.836 24.3 140.572 24.06C140.332 23.82 139.984 23.58 139.528 23.34C139.072 23.1 138.448 22.98 137.656 22.98C136.456 22.98 135.436 23.232 134.596 23.736C133.78 24.24 133.108 24.912 132.58 25.752C132.076 26.592 131.704 27.516 131.464 28.524C131.224 29.532 131.104 30.54 131.104 31.548C131.104 33.3 131.512 34.692 132.328 35.724C133.144 36.756 134.356 37.272 135.964 37.272C136.804 37.272 137.536 37.116 138.16 36.804C138.808 36.468 139.324 36.144 139.708 35.832C140.116 35.52 140.356 35.364 140.428 35.364C140.692 35.364 140.908 35.556 141.076 35.94C141.268 36.3 141.364 36.648 141.364 36.984C141.364 37.224 141.076 37.548 140.5 37.956C139.924 38.364 139.204 38.724 138.34 39.036C137.5 39.348 136.66 39.504 135.82 39.504ZM148.241 39.504C147.953 39.504 147.701 39.276 147.485 38.82C147.293 38.364 147.137 37.776 147.017 37.056C146.921 36.312 146.873 35.52 146.873 34.68C146.873 34.176 146.897 33.612 146.945 32.988C147.017 32.364 147.065 31.884 147.089 31.548L148.025 23.664H145.973C145.445 23.664 145.181 23.316 145.181 22.62C145.181 22.308 145.277 22.008 145.469 21.72C145.661 21.408 145.913 21.252 146.225 21.252H148.349L148.997 15.708C149.045 15.3 149.285 15 149.717 14.808C150.149 14.616 150.569 14.52 150.977 14.52C151.313 14.52 151.517 14.544 151.589 14.592C151.685 14.64 151.733 14.76 151.733 14.952L150.977 21.252H154.325C154.877 21.252 155.153 21.612 155.153 22.332C155.153 22.62 155.045 22.92 154.829 23.232C154.637 23.52 154.385 23.664 154.073 23.664H150.653L149.717 31.548C149.645 32.124 149.597 32.64 149.573 33.096C149.549 33.552 149.537 33.972 149.537 34.356C149.537 35.532 149.633 36.42 149.825 37.02C150.041 37.62 150.149 38.112 150.149 38.496C150.149 38.808 149.909 39.048 149.429 39.216C148.973 39.408 148.577 39.504 148.241 39.504ZM157.614 39.504C157.278 39.504 157.026 39.456 156.858 39.36C156.714 39.264 156.642 39.072 156.642 38.784L158.694 21.648C158.742 21.24 158.91 20.988 159.198 20.892C159.51 20.796 159.87 20.748 160.278 20.748C160.614 20.748 160.878 20.808 161.07 20.928C161.286 21.024 161.394 21.204 161.394 21.468L161.034 24.168H161.214C161.886 23.064 162.762 22.176 163.842 21.504C164.922 20.832 166.05 20.496 167.226 20.496C167.682 20.496 167.97 20.568 168.09 20.712C168.21 20.856 168.27 21.036 168.27 21.252C168.27 21.804 168.162 22.212 167.946 22.476C167.754 22.74 167.526 22.92 167.262 23.016C166.998 23.088 166.782 23.124 166.614 23.124C165.39 23.124 164.322 23.556 163.41 24.42C162.498 25.284 161.766 26.388 161.214 27.732C160.686 29.076 160.326 30.492 160.134 31.98L159.306 38.604C159.258 38.988 159.066 39.228 158.73 39.324C158.394 39.444 158.022 39.504 157.614 39.504ZM173.705 39.504C172.457 39.504 171.377 39.144 170.465 38.424C169.553 37.68 169.097 36.576 169.097 35.112C169.097 33.936 169.445 32.82 170.141 31.764C170.861 30.684 172.073 29.772 173.777 29.028C175.505 28.284 177.881 27.816 180.905 27.624C180.977 27.192 181.025 26.784 181.049 26.4C181.073 25.992 181.085 25.656 181.085 25.392C181.085 24.528 180.761 23.94 180.113 23.628C179.465 23.316 178.685 23.16 177.773 23.16C176.861 23.16 176.057 23.28 175.361 23.52C174.665 23.736 174.089 23.964 173.633 24.204C173.177 24.42 172.841 24.528 172.625 24.528C172.289 24.528 172.025 24.324 171.833 23.916C171.665 23.508 171.581 23.148 171.581 22.836C171.581 22.62 171.785 22.392 172.193 22.152C172.625 21.912 173.165 21.684 173.813 21.468C174.485 21.252 175.181 21.084 175.901 20.964C176.621 20.82 177.281 20.748 177.881 20.748C178.889 20.748 179.849 20.88 180.761 21.144C181.673 21.384 182.417 21.804 182.993 22.404C183.569 23.004 183.857 23.832 183.857 24.888C183.857 25.632 183.749 26.616 183.533 27.84C183.317 29.04 183.089 30.312 182.849 31.656C182.633 33 182.525 34.272 182.525 35.472C182.525 36.288 182.585 36.912 182.705 37.344C182.849 37.776 182.921 38.16 182.921 38.496C182.921 38.712 182.789 38.892 182.525 39.036C182.285 39.18 181.997 39.288 181.661 39.36C181.349 39.456 181.073 39.504 180.833 39.504C180.617 39.504 180.449 39.324 180.329 38.964C180.209 38.604 180.125 38.172 180.077 37.668C180.053 37.164 180.041 36.696 180.041 36.264V35.328C179.297 36.768 178.337 37.824 177.161 38.496C175.985 39.168 174.833 39.504 173.705 39.504ZM174.641 37.128C175.457 37.128 176.189 36.912 176.837 36.48C177.485 36.024 178.049 35.436 178.529 34.716C179.033 33.972 179.441 33.168 179.753 32.304C180.065 31.44 180.293 30.6 180.437 29.784C178.277 29.952 176.573 30.264 175.325 30.72C174.101 31.152 173.225 31.692 172.697 32.34C172.193 32.988 171.941 33.732 171.941 34.572C171.941 35.268 172.181 35.868 172.661 36.372C173.141 36.876 173.801 37.128 174.641 37.128Z" fill="white"/>
<path fill-rule="evenodd" clip-rule="evenodd" d="M34.818 41.2256C35.3958 40.6139 36.0785 39.3736 36.383 38.5381C37.5834 35.244 36.5023 31.4518 34.0519 29.2138C30.7729 26.2192 27.0191 25.0335 22.7589 23.7615C18.5795 22.5138 14.6809 20.0925 13.6046 16.0986C12.9051 13.5026 13.3643 11.2292 14.537 9.28785C15.5487 7.61302 17.0186 6.34611 19.1006 5.47921C23.4288 3.67699 28.9924 5.64048 32.1999 7.64609C35.502 9.71102 38.4892 12.9322 40.1257 16.5931C42.1809 21.1908 42.6684 25.5969 41.3419 30.9356C40.8535 32.9014 39.7087 35.4524 38.7476 36.7917C38.4141 37.2565 38.1843 37.5948 37.8538 38.0375C37.2437 38.8549 35.5409 40.8189 34.818 41.2256ZM15.3082 45.1489C17.0655 45.33 17.9174 45.7689 20.2086 45.4255C25.0641 44.698 27.4751 39.713 25.4368 35.7689C24.1911 33.3583 22.4722 31.8998 19.5328 30.8744C16.851 29.9389 13.7303 29.5659 11.0911 28.6158C6.96174 27.1294 3.5916 24.8293 3.15405 20.3101C2.71861 15.8118 5.45456 12.0934 8.44018 9.32952C9.91017 7.96874 13.4082 5.86877 15.4043 5.51922C15.1759 5.72829 14.8032 5.8486 14.5064 6.02892C13.7471 6.49036 12.6563 7.20072 12.1063 7.81076C11.1393 8.88335 10.5069 9.74662 9.92294 11.1747C9.29527 12.7096 9.19775 14.2902 9.6139 15.9712C10.2949 18.7225 12.233 20.841 14.4366 22.2879C20.0629 25.9821 28.4358 26.4477 31.7482 32.5845C33.3143 35.4859 33.2544 38.735 31.6019 41.4452C29.2148 45.3604 24.0948 46.2937 19.8716 46.0811C18.8619 46.0302 15.9475 45.6099 15.3082 45.1489ZM42.9208 27.4456C43.5067 20.6051 40.7898 14.182 36.1812 9.88685C32.6426 6.58893 28.3349 4.54869 23.3355 4.08968C11.265 2.98138 1.17748 12.2986 0.106467 23.5467C-0.224631 27.0239 0.224888 30.1364 1.33832 33.0573C2.31347 35.6156 2.90416 36.3642 4.21522 38.3219C4.42235 38.6311 4.59173 38.8348 4.78899 39.0775L5.39584 39.7978C5.64645 40.0703 5.85519 40.2359 6.09274 40.4983C6.67106 41.1373 7.48716 41.8381 8.17859 42.3821C14.0104 46.9701 21.9247 48.2435 28.9379 45.7332C30.2129 45.2768 31.4588 44.663 32.5451 44.0017C33.6528 43.3275 34.8194 42.5574 35.6732 41.7746C39.7392 38.0463 42.3965 33.5666 42.9208 27.4456Z" fill="#FEFEFE"/>
</svg>
