<svg width="209" height="289" viewBox="0 0 209 289" fill="none" xmlns="http://www.w3.org/2000/svg">
<path fill-rule="evenodd" clip-rule="evenodd" d="M166.945 173.142C169.633 170.297 172.808 164.528 174.224 160.642C179.807 145.321 174.779 127.683 163.382 117.274C148.131 103.345 130.671 97.8302 110.856 91.9142C91.4166 86.1106 73.2838 74.8491 68.2776 56.2724C65.0239 44.1982 67.1601 33.6241 72.6145 24.5947C77.3201 16.8048 84.1569 10.9122 93.8404 6.88005C113.972 -1.50237 139.849 7.63015 154.768 16.9586C170.127 26.5629 184.021 41.5452 191.632 58.5726C201.192 79.9572 203.459 100.45 197.289 125.282C195.017 134.425 189.693 146.29 185.222 152.519C183.671 154.681 182.603 156.255 181.065 158.314C178.228 162.116 170.307 171.251 166.945 173.142ZM76.2016 191.39C84.3751 192.233 88.3372 194.274 98.9942 192.677C121.578 189.293 132.792 166.107 123.311 147.762C117.517 136.55 109.523 129.767 95.8509 124.997C83.3774 120.646 68.8624 118.911 56.5869 114.492C37.3804 107.579 21.7052 96.8806 19.6701 75.8612C17.6448 54.9388 30.3702 37.6437 44.2569 24.7885C51.0941 18.4593 67.3639 8.69195 76.6485 7.06615C75.586 8.03855 73.8527 8.59815 72.4722 9.43685C68.9403 11.5831 63.8669 14.8871 61.3089 17.7245C56.811 22.7133 53.8696 26.7285 51.1535 33.3709C48.2341 40.5096 47.7805 47.8612 49.7161 55.6802C52.8836 68.4768 61.8978 78.3301 72.1473 85.06C98.3165 102.242 137.26 104.408 152.667 132.951C159.951 146.446 159.672 161.558 151.987 174.164C140.884 192.374 117.069 196.715 97.4264 195.726C92.7301 195.489 79.1751 193.534 76.2016 191.39ZM204.633 109.049C207.358 77.233 194.721 47.358 173.286 27.3807C156.827 12.0416 136.791 2.55204 113.538 0.417137C57.3956 -4.73777 10.4767 38.5981 5.4952 90.9151C3.9552 107.088 6.046 121.564 11.2248 135.15C15.7604 147.049 18.5078 150.531 24.6058 159.637C25.5692 161.075 26.357 162.022 27.2745 163.151L30.0971 166.501C31.2627 167.769 32.2336 168.539 33.3385 169.76C36.0284 172.732 39.8242 175.991 43.0402 178.521C70.165 199.861 106.976 205.784 139.595 194.108C145.526 191.985 151.321 189.13 156.373 186.055C161.526 182.919 166.952 179.337 170.923 175.696C189.835 158.355 202.194 137.519 204.633 109.049Z" fill="#FEFEFE"/>
<path d="M16.5433 266.965C14.4526 266.965 12.3833 266.666 10.3353 266.069C8.32992 265.429 6.51658 264.405 4.89525 262.997C3.95658 262.186 3.08192 261.162 2.27125 259.925C1.50325 258.645 1.11925 257.408 1.11925 256.213C1.11925 255.616 1.28992 255.104 1.63125 254.677C1.97258 254.208 2.48458 253.973 3.16725 253.973C3.97792 253.973 4.55392 254.4 4.89525 255.253C5.27925 256.106 5.76992 257.024 6.36725 258.005C7.47658 259.584 8.79925 260.8 10.3353 261.653C11.8713 262.464 13.8766 262.869 16.3513 262.869C18.6979 262.869 20.7459 262.421 22.4953 261.525C24.2873 260.586 25.6953 259.306 26.7193 257.685C27.7433 256.021 28.2553 254.101 28.2553 251.925C28.2553 250.176 27.7433 248.576 26.7193 247.125C25.6953 245.674 24.3939 244.288 22.8153 242.965C21.2366 241.6 19.5299 240.256 17.6953 238.933C15.9033 237.61 14.2179 236.224 12.6393 234.773C11.0606 233.28 9.75925 231.658 8.73525 229.909C7.71125 228.16 7.19925 226.197 7.19925 224.021C7.19925 220.992 7.92458 218.474 9.37525 216.469C10.8686 214.421 12.8526 212.885 15.3273 211.861C17.8446 210.794 20.5966 210.261 23.5833 210.261C25.7593 210.261 27.8073 210.645 29.7273 211.413C31.6899 212.138 33.2899 213.034 34.5273 214.101C35.7646 215.168 36.3833 216.234 36.3833 217.301C36.3833 218.624 35.7859 219.285 34.5913 219.285C33.9939 219.285 33.3753 219.029 32.7353 218.517C32.1379 218.005 31.4126 217.429 30.5593 216.789C29.7486 216.149 28.7246 215.573 27.4873 215.061C26.2926 214.549 24.7779 214.293 22.9433 214.293C19.8286 214.293 17.2899 215.146 15.3273 216.853C13.3646 218.56 12.3833 220.906 12.3833 223.893C12.3833 225.557 12.8739 227.093 13.8553 228.501C14.8793 229.866 16.1806 231.21 17.7593 232.533C19.3806 233.813 21.0873 235.114 22.8793 236.437C24.6713 237.717 26.3566 239.104 27.9353 240.597C29.5566 242.09 30.8579 243.754 31.8393 245.589C32.8633 247.381 33.3753 249.408 33.3753 251.669C33.3753 254.869 32.6499 257.621 31.1993 259.925C29.7913 262.186 27.8073 263.936 25.2473 265.173C22.7299 266.368 19.8286 266.965 16.5433 266.965ZM41.6763 288.469C41.1216 288.469 40.6949 288.384 40.3963 288.213C40.0976 288.042 39.9483 287.701 39.9483 287.189L46.3483 235.221C46.4763 234.496 46.7963 234.048 47.3083 233.877C47.8203 233.706 48.4603 233.621 49.2283 233.621C49.7403 233.621 50.1669 233.728 50.5083 233.941C50.8923 234.112 51.0843 234.432 51.0843 234.901L50.6363 239.445C51.9589 237.61 53.4736 236.181 55.1803 235.157C56.8869 234.133 58.8283 233.621 61.0043 233.621C62.7109 233.621 64.3109 234.026 65.8043 234.837C67.3403 235.648 68.5776 236.906 69.5163 238.613C70.4976 240.32 70.9883 242.517 70.9883 245.205C70.9883 246.954 70.7536 248.832 70.2843 250.837C69.8576 252.8 69.1109 254.741 68.0443 256.661C66.9776 258.538 65.5269 260.266 63.6923 261.845C61.9003 263.381 59.6603 264.618 56.9722 265.557C54.3269 266.496 51.1483 266.965 47.4363 266.965L44.7483 286.869C44.6629 287.552 44.3003 287.978 43.6603 288.149C43.0629 288.362 42.4016 288.469 41.6763 288.469ZM49.4843 262.997C52.6416 262.997 55.4363 262.208 57.8683 260.629C60.3429 259.05 62.2843 256.96 63.6923 254.357C65.1003 251.754 65.8043 248.917 65.8043 245.845C65.8043 243.712 65.2923 241.856 64.2683 240.277C63.2443 238.656 61.6656 237.845 59.5323 237.845C57.6976 237.845 56.1403 238.336 54.8603 239.317C53.6229 240.298 52.5989 241.6 51.7883 243.221C50.9776 244.8 50.3376 246.549 49.8683 248.469C49.4416 250.346 49.1216 252.181 48.9083 253.973L47.8843 262.869C48.0123 262.912 48.2896 262.954 48.7163 262.997C49.1429 262.997 49.3989 262.997 49.4843 262.997ZM90.6803 266.965C86.2003 266.965 82.8083 265.728 80.5043 263.253C78.2003 260.778 77.0483 257.301 77.0483 252.821C77.0483 249.536 77.6029 246.698 78.7123 244.309C79.8643 241.877 81.3363 239.872 83.1283 238.293C84.9203 236.714 86.8189 235.541 88.8243 234.773C90.8296 234.005 92.7283 233.621 94.5203 233.621C96.7816 233.621 98.6803 234.176 100.216 235.285C101.752 236.394 102.52 238.016 102.52 240.149C102.52 242.666 101.603 244.885 99.7683 246.805C97.9336 248.725 95.4803 250.218 92.4083 251.285C89.3789 252.352 85.9869 252.885 82.2323 252.885C82.2323 256 82.9576 258.474 84.4083 260.309C85.9016 262.101 88.0776 262.997 90.9363 262.997C92.4296 262.997 93.7309 262.72 94.8403 262.165C95.9923 261.568 96.9096 260.992 97.5923 260.437C98.3176 259.882 98.7229 259.605 98.8083 259.605C99.3203 259.605 99.7256 259.946 100.024 260.629C100.366 261.269 100.536 261.888 100.536 262.485C100.536 262.912 100.024 263.488 99.0003 264.213C97.9763 264.938 96.6963 265.578 95.1603 266.133C93.6669 266.688 92.1736 266.965 90.6803 266.965ZM82.4883 249.109C84.3656 249.109 86.2216 248.917 88.0563 248.533C89.8909 248.106 91.5336 247.53 92.9843 246.805C94.4776 246.08 95.6509 245.205 96.5043 244.181C97.4003 243.157 97.8483 242.026 97.8483 240.789C97.8483 239.68 97.5069 238.848 96.8243 238.293C96.1416 237.738 95.2883 237.461 94.2643 237.461C92.9416 237.461 91.4483 237.909 89.7843 238.805C88.1203 239.658 86.5843 240.938 85.1763 242.645C83.8109 244.352 82.9149 246.506 82.4883 249.109ZM120.18 266.965C115.7 266.965 112.308 265.706 110.004 263.189C107.7 260.672 106.548 257.173 106.548 252.693C106.548 250.304 106.932 247.978 107.7 245.717C108.468 243.456 109.578 241.408 111.028 239.573C112.479 237.738 114.25 236.288 116.34 235.221C118.474 234.154 120.884 233.621 123.572 233.621C125.279 233.621 126.772 233.856 128.052 234.325C129.332 234.752 130.314 235.264 130.996 235.861C131.722 236.458 132.084 236.992 132.084 237.461C132.084 238.058 131.828 238.656 131.316 239.253C130.847 239.85 130.314 240.149 129.716 240.149C129.46 240.149 129.098 239.936 128.628 239.509C128.202 239.082 127.583 238.656 126.772 238.229C125.962 237.802 124.852 237.589 123.444 237.589C121.311 237.589 119.498 238.037 118.004 238.933C116.554 239.829 115.359 241.024 114.42 242.517C113.524 244.01 112.863 245.653 112.436 247.445C112.01 249.237 111.796 251.029 111.796 252.821C111.796 255.936 112.522 258.41 113.972 260.245C115.423 262.08 117.578 262.997 120.436 262.997C121.93 262.997 123.231 262.72 124.34 262.165C125.492 261.568 126.41 260.992 127.092 260.437C127.818 259.882 128.244 259.605 128.372 259.605C128.842 259.605 129.226 259.946 129.524 260.629C129.866 261.269 130.036 261.888 130.036 262.485C130.036 262.912 129.524 263.488 128.5 264.213C127.476 264.938 126.196 265.578 124.66 266.133C123.167 266.688 121.674 266.965 120.18 266.965ZM142.262 266.965C141.75 266.965 141.302 266.56 140.918 265.749C140.577 264.938 140.3 263.893 140.086 262.613C139.916 261.29 139.83 259.882 139.83 258.389C139.83 257.493 139.873 256.49 139.958 255.381C140.086 254.272 140.172 253.418 140.214 252.821L141.878 238.805H138.23C137.292 238.805 136.822 238.186 136.822 236.949C136.822 236.394 136.993 235.861 137.334 235.349C137.676 234.794 138.124 234.517 138.678 234.517H142.454L143.606 224.661C143.692 223.936 144.118 223.402 144.886 223.061C145.654 222.72 146.401 222.549 147.126 222.549C147.724 222.549 148.086 222.592 148.214 222.677C148.385 222.762 148.47 222.976 148.47 223.317L147.126 234.517H153.078C154.06 234.517 154.55 235.157 154.55 236.437C154.55 236.949 154.358 237.482 153.974 238.037C153.633 238.549 153.185 238.805 152.63 238.805H146.55L144.886 252.821C144.758 253.845 144.673 254.762 144.63 255.573C144.588 256.384 144.566 257.13 144.566 257.813C144.566 259.904 144.737 261.482 145.078 262.549C145.462 263.616 145.654 264.49 145.654 265.173C145.654 265.728 145.228 266.154 144.374 266.453C143.564 266.794 142.86 266.965 142.262 266.965ZM158.925 266.965C158.328 266.965 157.88 266.88 157.581 266.709C157.325 266.538 157.197 266.197 157.197 265.685L160.845 235.221C160.931 234.496 161.229 234.048 161.741 233.877C162.296 233.706 162.936 233.621 163.661 233.621C164.259 233.621 164.728 233.728 165.069 233.941C165.453 234.112 165.645 234.432 165.645 234.901L165.005 239.701H165.325C166.52 237.738 168.077 236.16 169.997 234.965C171.917 233.77 173.923 233.173 176.013 233.173C176.824 233.173 177.336 233.301 177.549 233.557C177.763 233.813 177.869 234.133 177.869 234.517C177.869 235.498 177.677 236.224 177.293 236.693C176.952 237.162 176.547 237.482 176.077 237.653C175.608 237.781 175.224 237.845 174.925 237.845C172.749 237.845 170.851 238.613 169.229 240.149C167.608 241.685 166.307 243.648 165.325 246.037C164.387 248.426 163.747 250.944 163.405 253.589L161.933 265.365C161.848 266.048 161.507 266.474 160.909 266.645C160.312 266.858 159.651 266.965 158.925 266.965ZM187.53 266.965C185.312 266.965 183.392 266.325 181.77 265.045C180.149 263.722 179.338 261.76 179.338 259.157C179.338 257.066 179.957 255.082 181.194 253.205C182.474 251.285 184.629 249.664 187.658 248.341C190.73 247.018 194.954 246.186 200.33 245.845C200.458 245.077 200.544 244.352 200.586 243.669C200.629 242.944 200.65 242.346 200.65 241.877C200.65 240.341 200.074 239.296 198.922 238.741C197.77 238.186 196.384 237.909 194.762 237.909C193.141 237.909 191.712 238.122 190.474 238.549C189.237 238.933 188.213 239.338 187.402 239.765C186.592 240.149 185.994 240.341 185.61 240.341C185.013 240.341 184.544 239.978 184.202 239.253C183.904 238.528 183.754 237.888 183.754 237.333C183.754 236.949 184.117 236.544 184.842 236.117C185.61 235.69 186.57 235.285 187.722 234.901C188.917 234.517 190.154 234.218 191.434 234.005C192.714 233.749 193.888 233.621 194.954 233.621C196.746 233.621 198.453 233.856 200.074 234.325C201.696 234.752 203.018 235.498 204.042 236.565C205.066 237.632 205.578 239.104 205.578 240.981C205.578 242.304 205.386 244.053 205.002 246.229C204.618 248.362 204.213 250.624 203.786 253.013C203.402 255.402 203.21 257.664 203.21 259.797C203.21 261.248 203.317 262.357 203.53 263.125C203.786 263.893 203.914 264.576 203.914 265.173C203.914 265.557 203.68 265.877 203.21 266.133C202.784 266.389 202.272 266.581 201.674 266.709C201.12 266.88 200.629 266.965 200.202 266.965C199.818 266.965 199.52 266.645 199.306 266.005C199.093 265.365 198.944 264.597 198.858 263.701C198.816 262.805 198.794 261.973 198.794 261.205V259.541C197.472 262.101 195.765 263.978 193.674 265.173C191.584 266.368 189.536 266.965 187.53 266.965ZM189.194 262.741C190.645 262.741 191.946 262.357 193.098 261.589C194.25 260.778 195.253 259.733 196.106 258.453C197.002 257.13 197.728 255.701 198.282 254.165C198.837 252.629 199.242 251.136 199.498 249.685C195.658 249.984 192.629 250.538 190.41 251.349C188.234 252.117 186.677 253.077 185.738 254.229C184.842 255.381 184.394 256.704 184.394 258.197C184.394 259.434 184.821 260.501 185.674 261.397C186.528 262.293 187.701 262.741 189.194 262.741Z" fill="white"/>
</svg>
